<?xml version="1.0" encoding="utf-8"?>
<!-- Generator: Adobe Illustrator 25.4.1, SVG Export Plug-In . SVG Version: 6.00 Build 0)  -->
<svg version="1.1" id="Calque_1" xmlns="http://www.w3.org/2000/svg" xmlns:xlink="http://www.w3.org/1999/xlink" x="0px" y="0px"
	 viewBox="0 0 424.26 233.19" style="enable-background:new 0 0 424.26 233.19;" xml:space="preserve">
<style type="text/css">
	.st0{fill:#FFFFFF;}
	.st1{fill:#FFED00;}
</style>
<path class="st0" d="M30.86,52.55h1.83l26.59,37.84l26.59-37.84h1.74v61.03h-1.92v-57.8L59.28,93.44h-0.09L32.77,55.78v57.8h-1.92
	V52.55H30.86z"/>
<path class="st0" d="M234.68,52.55h1.92v61.03h-1.92V52.55z"/>
<path class="st0" d="M51.08,190.45c-4.71,0-9.08-0.84-13.12-2.53s-7.72-4.1-11.03-7.24l1.4-1.4c3.14,3.02,6.63,5.35,10.46,6.97
	c3.84,1.63,7.99,2.44,12.47,2.44c2.85,0,5.43-0.36,7.76-1.09c2.32-0.73,4.3-1.73,5.93-3.01c1.63-1.28,2.88-2.8,3.75-4.58
	c0.87-1.77,1.31-3.68,1.31-5.71v-0.17c0-1.86-0.32-3.53-0.96-5.01s-1.71-2.8-3.23-3.97c-1.51-1.16-3.56-2.19-6.15-3.1
	c-2.59-0.9-5.8-1.76-9.63-2.57c-3.78-0.75-6.99-1.61-9.63-2.57c-2.65-0.96-4.79-2.08-6.45-3.36s-2.86-2.75-3.62-4.4
	c-0.76-1.66-1.13-3.56-1.13-5.71v-0.17c0-2.15,0.49-4.17,1.48-6.06s2.37-3.54,4.14-4.97c1.77-1.42,3.86-2.54,6.28-3.36
	c2.41-0.81,5.07-1.22,7.98-1.22c4.01,0,7.77,0.63,11.29,1.87c3.52,1.25,6.67,2.95,9.46,5.1l-1.22,1.57
	c-2.73-2.03-5.75-3.68-9.07-4.93c-3.31-1.25-6.86-1.87-10.64-1.87c-2.67,0-5.1,0.38-7.28,1.13c-2.18,0.76-4.05,1.77-5.62,3.05
	s-2.78,2.75-3.62,4.4c-0.84,1.66-1.26,3.39-1.26,5.19v0.17c0,1.86,0.32,3.52,0.96,4.97c0.64,1.45,1.73,2.75,3.27,3.88
	s3.56,2.15,6.06,3.05c2.5,0.9,5.64,1.73,9.42,2.48c3.95,0.81,7.28,1.73,9.98,2.75s4.88,2.18,6.54,3.49
	c1.66,1.31,2.83,2.79,3.53,4.45s1.05,3.53,1.05,5.62v0.17c0,2.27-0.48,4.39-1.44,6.36c-0.96,1.98-2.34,3.69-4.14,5.14
	s-4,2.6-6.58,3.44C57.17,190.03,54.28,190.45,51.08,190.45z"/>
<path class="st0" d="M232.68,190.45c-4.71,0-9.08-0.84-13.12-2.53s-7.72-4.1-11.03-7.24l1.4-1.4c3.14,3.02,6.63,5.35,10.46,6.97
	c3.84,1.63,7.99,2.44,12.47,2.44c2.85,0,5.43-0.36,7.76-1.09c2.32-0.73,4.3-1.73,5.93-3.01c1.63-1.28,2.88-2.8,3.75-4.58
	c0.87-1.77,1.31-3.68,1.31-5.71v-0.17c0-1.86-0.32-3.53-0.96-5.01s-1.71-2.8-3.23-3.97c-1.51-1.16-3.56-2.19-6.15-3.1
	c-2.59-0.9-5.8-1.76-9.63-2.57c-3.78-0.75-6.99-1.61-9.63-2.57c-2.65-0.96-4.79-2.08-6.45-3.36s-2.86-2.75-3.62-4.4
	c-0.76-1.66-1.13-3.56-1.13-5.71v-0.17c0-2.15,0.49-4.17,1.48-6.06c0.99-1.89,2.37-3.54,4.14-4.97c1.77-1.42,3.86-2.54,6.28-3.36
	c2.41-0.81,5.07-1.22,7.98-1.22c4.01,0,7.77,0.63,11.29,1.87c3.52,1.25,6.67,2.95,9.46,5.1l-1.22,1.57
	c-2.73-2.03-5.75-3.68-9.07-4.93c-3.31-1.25-6.86-1.87-10.64-1.87c-2.67,0-5.1,0.38-7.28,1.13c-2.18,0.76-4.05,1.77-5.62,3.05
	c-1.57,1.28-2.78,2.75-3.62,4.4c-0.84,1.66-1.26,3.39-1.26,5.19v0.17c0,1.86,0.32,3.52,0.96,4.97s1.73,2.75,3.27,3.88
	c1.54,1.13,3.56,2.15,6.06,3.05c2.5,0.9,5.64,1.73,9.42,2.48c3.95,0.81,7.28,1.73,9.98,2.75s4.88,2.18,6.54,3.49
	c1.66,1.31,2.83,2.79,3.53,4.45s1.05,3.53,1.05,5.62v0.17c0,2.27-0.48,4.39-1.44,6.36c-0.96,1.98-2.34,3.69-4.14,5.14
	s-4,2.6-6.58,3.44C238.77,190.03,235.88,190.45,232.68,190.45z"/>
<g>
	<g>
		<path class="st0" d="M126.02,113.69v-1.42l0.1-0.1h0.1v-0.1l0.11-0.1h0.69l0.11,0.1v0.1h0.1l0.1,0.1v1.42l-0.1,0.1h-0.1v0.1
			l-0.11,0.1h-0.69l-0.11-0.1v-0.1h-0.1L126.02,113.69z M126.43,113.01h0.1v-0.21h0.21v-0.15l0.31-0.31v-0.1h-0.76v0.91
			L126.43,113.01z M126.29,113.54v0.19h0.76v-0.99l-0.14,0.14h-0.1v0.2h-0.21v0.15L126.29,113.54z"/>
		<path class="st0" d="M128.27,113.72h0.3v-1.18h-0.3v-0.28h0.3v-0.31h0.28v1.76h0.3V114h-0.87v-0.28H128.27z"/>
		<path class="st0" d="M130.31,113.72h0.3v-1.18h-0.3v-0.28h0.3v-0.31h0.28v1.76h0.3V114h-0.87v-0.28H130.31z"/>
		<path class="st0" d="M132.35,113.72h0.3v-1.18h-0.3v-0.28h0.3v-0.31h0.28v1.76h0.3V114h-0.87v-0.28H132.35z"/>
		<path class="st0" d="M134.39,113.72h0.3v-1.18h-0.3v-0.28h0.3v-0.31h0.28v1.76h0.3V114h-0.87v-0.28H134.39z"/>
		<path class="st0" d="M136.21,113.69v-1.42l0.1-0.1h0.1v-0.1l0.11-0.1h0.69l0.11,0.1v0.1h0.1l0.1,0.1v1.42l-0.1,0.1h-0.1v0.1
			l-0.11,0.1h-0.69l-0.11-0.1v-0.1h-0.1L136.21,113.69z M136.62,113.01h0.1v-0.21h0.21v-0.15l0.31-0.31v-0.1h-0.76v0.91
			L136.62,113.01z M136.48,113.54v0.19h0.76v-0.99l-0.14,0.14H137v0.2h-0.21v0.15L136.48,113.54z"/>
		<path class="st0" d="M127.05,115.98h-1.03v-0.28h1.31v0.58l-0.42,0.42h-0.1v1.05h-0.28v-1.12h0.21v-0.15l0.31-0.31V115.98z"/>
		<path class="st0" d="M128.16,116.75h0.1v-0.13h-0.1l-0.1-0.1v-0.5l0.1-0.1h0.1v-0.1l0.11-0.1h0.69l0.11,0.1v0.1h0.1l0.1,0.1v0.5
			l-0.1,0.1h-0.1v0.13h0.1l0.1,0.1v0.58l-0.1,0.1h-0.1v0.1l-0.11,0.1h-0.69l-0.11-0.1v-0.1h-0.1l-0.1-0.1v-0.58L128.16,116.75z
			 M128.33,116.55h0.76v-0.56h-0.76V116.55z M129.09,117.47v-0.65h-0.76v0.65H129.09z"/>
		<path class="st0" d="M130.19,115.92h0.1v-0.1l0.11-0.1h0.69l0.11,0.1v0.1h0.21v0.4h-0.28v-0.33h-0.76v0.56h0.72l0.11,0.1v0.1h0.1
			l0.1,0.1v0.58l-0.1,0.1h-0.1v0.1l-0.11,0.1h-0.69l-0.11-0.1v-0.1h-0.1l-0.1-0.1v-1.42L130.19,115.92z M131.13,117.47v-0.65h-0.76
			v0.65H131.13z"/>
		<path class="st0" d="M132.13,117.14h0.28v0.33h0.76v-0.65h-0.72l-0.11-0.1v-0.1h-0.2v-0.91h1.31v0.28h-1.03v0.56h0.72l0.11,0.1
			v0.1h0.1l0.1,0.1v0.58l-0.1,0.1h-0.1v0.1l-0.11,0.1h-0.69l-0.11-0.1v-0.1h-0.2L132.13,117.14L132.13,117.14z"/>
	</g>
</g>
<g>
	<path class="st0" d="M379.02,135.3v-1.42l0.1-0.1h0.1v-0.1l0.1-0.1h0.69l0.1,0.1v0.1h0.1l0.1,0.1v1.42l-0.1,0.1h-0.1v0.1l-0.1,0.11
		h-0.69l-0.1-0.11v-0.1h-0.1L379.02,135.3z M379.43,134.61h0.1v-0.21h0.21v-0.15l0.31-0.31v-0.1h-0.76v0.91L379.43,134.61z
		 M379.3,135.14v0.19h0.76v-0.99l-0.14,0.14h-0.1v0.2h-0.21v0.15L379.3,135.14z"/>
	<path class="st0" d="M381.28,135.33h0.3v-1.18h-0.3v-0.28h0.3v-0.31h0.28v1.76h0.3v0.28h-0.87L381.28,135.33L381.28,135.33z"/>
	<path class="st0" d="M383.32,135.33h0.3v-1.18h-0.3v-0.28h0.3v-0.31h0.28v1.76h0.3v0.28h-0.87L383.32,135.33L383.32,135.33z"/>
	<path class="st0" d="M385.35,135.33h0.3v-1.18h-0.3v-0.28h0.3v-0.31h0.28v1.76h0.3v0.28h-0.87L385.35,135.33L385.35,135.33z"/>
	<path class="st0" d="M387.39,135.33h0.3v-1.18h-0.3v-0.28h0.3v-0.31h0.28v1.76h0.3v0.28h-0.87L387.39,135.33L387.39,135.33z"/>
	<path class="st0" d="M389.21,135.3v-1.42l0.1-0.1h0.1v-0.1l0.1-0.1h0.69l0.1,0.1v0.1h0.1l0.1,0.1v1.42l-0.1,0.1h-0.1v0.1l-0.1,0.11
		h-0.69l-0.1-0.11v-0.1h-0.1L389.21,135.3z M389.62,134.61h0.1v-0.21h0.21v-0.15l0.31-0.31v-0.1h-0.76v0.91L389.62,134.61z
		 M389.49,135.14v0.19h0.76v-0.99l-0.14,0.14H390v0.2h-0.21v0.15L389.49,135.14z"/>
	<path class="st0" d="M394.32,133.85h-1.03v-0.28h1.31v0.58l-0.42,0.42h-0.1v1.05h-0.28v-1.12h0.21v-0.15l0.31-0.31L394.32,133.85
		L394.32,133.85z"/>
	<path class="st0" d="M395.43,134.61h0.1v-0.13h-0.1l-0.1-0.1v-0.5l0.1-0.1h0.1v-0.1l0.1-0.1h0.69l0.1,0.1v0.1h0.1l0.1,0.1v0.5
		l-0.1,0.1h-0.1v0.13h0.1l0.1,0.1v0.58l-0.1,0.1h-0.1v0.1l-0.1,0.11h-0.69l-0.1-0.11v-0.1h-0.1l-0.1-0.1v-0.58L395.43,134.61z
		 M395.6,134.41h0.76v-0.56h-0.76V134.41z M396.36,135.33v-0.65h-0.76v0.65H396.36z"/>
	<path class="st0" d="M397.47,133.78h0.1v-0.1l0.1-0.1h0.69l0.1,0.1v0.1h0.21v0.41h-0.28v-0.33h-0.76v0.56h0.72l0.1,0.11v0.1h0.1
		l0.1,0.1v0.58l-0.1,0.1h-0.1v0.1l-0.1,0.11h-0.69l-0.1-0.11v-0.1h-0.1l-0.1-0.1v-1.42L397.47,133.78z M398.4,135.33v-0.65h-0.76
		v0.65H398.4z"/>
	<path class="st0" d="M399.4,135h0.28v0.33h0.76v-0.65h-0.73l-0.1-0.1v-0.1h-0.2v-0.91h1.31v0.28h-1.03v0.56h0.72l0.1,0.11v0.1h0.1
		l0.1,0.1v0.58l-0.1,0.1h-0.1v0.1l-0.1,0.11h-0.69l-0.1-0.11v-0.1h-0.2V135H399.4z"/>
	<path class="st0" d="M379.02,138.74h0.28v0.33h0.76v-0.65h-0.73l-0.1-0.1v-0.1h-0.2v-0.91h1.31v0.28h-1.03v0.56h0.72l0.1,0.11v0.1
		h0.1l0.1,0.1v0.58l-0.1,0.1h-0.1v0.1l-0.1,0.11h-0.69l-0.1-0.11v-0.1h-0.2v-0.4H379.02z"/>
	<path class="st0" d="M381.16,138.36h0.1v-0.13h-0.1l-0.1-0.1v-0.5l0.1-0.1h0.1v-0.1l0.1-0.1h0.69l0.1,0.1v0.1h0.1l0.1,0.1v0.5
		l-0.1,0.1h-0.1v0.13h0.1l0.1,0.1v0.58l-0.1,0.1h-0.1v0.1l-0.1,0.11h-0.69l-0.1-0.11v-0.1h-0.1l-0.1-0.1v-0.58L381.16,138.36z
		 M381.34,138.15h0.76v-0.56h-0.76V138.15z M382.09,139.08v-0.65h-0.76v0.65H382.09z"/>
	<path class="st0" d="M384.13,137.59h-1.03v-0.28h1.31v0.58l-0.42,0.42h-0.1v1.05h-0.28v-1.12h0.21v-0.15l0.31-0.31L384.13,137.59
		L384.13,137.59z"/>
	<path class="st0" d="M385.24,138.36h0.1v-0.13h-0.1l-0.1-0.1v-0.5l0.1-0.1h0.1v-0.1l0.1-0.1h0.69l0.1,0.1v0.1h0.1l0.1,0.1v0.5
		l-0.1,0.1h-0.1v0.13h0.1l0.1,0.1v0.58l-0.1,0.1h-0.1v0.1l-0.1,0.11h-0.69l-0.1-0.11v-0.1h-0.1l-0.1-0.1v-0.58L385.24,138.36z
		 M385.41,138.15h0.76v-0.56h-0.76V138.15z M386.17,139.08v-0.65h-0.76v0.65H386.17z"/>
	<path class="st0" d="M388.21,137.59h-1.03v-0.28h1.31v0.58l-0.42,0.42h-0.1v1.05h-0.28v-1.12h0.21v-0.15l0.31-0.31L388.21,137.59
		L388.21,137.59z"/>
	<path class="st0" d="M390.67,138.63h-1.6v-0.28h1.6V138.63z"/>
	<path class="st0" d="M394.32,137.76v-0.45h0.28v0.56l-1.03,1.03v0.45h-0.28v-0.56L394.32,137.76z"/>
	<path class="st0" d="M396.36,137.76v-0.45h0.28v0.56l-1.03,1.03v0.45h-0.28v-0.56L396.36,137.76z"/>
	<path class="st0" d="M397.43,138.63v-0.28h0.45v-0.45h0.28v0.45h0.45v0.28h-0.45v0.45h-0.28v-0.45H397.43z"/>
	<path class="st0" d="M399.5,138.36h0.1v-0.13h-0.1l-0.1-0.1v-0.5l0.1-0.1h0.1v-0.1l0.1-0.1h0.69l0.1,0.1v0.1h0.1l0.1,0.1v0.5
		l-0.1,0.1h-0.1v0.13h0.1l0.1,0.1v0.58l-0.1,0.1h-0.1v0.1l-0.1,0.11h-0.69l-0.1-0.11v-0.1h-0.1l-0.1-0.1v-0.58L399.5,138.36z
		 M399.68,138.15h0.76v-0.56h-0.76V138.15z M400.44,139.08v-0.65h-0.76v0.65H400.44z"/>
	<path class="st0" d="M402.47,137.59h-1.03v-0.28h1.31v0.58l-0.42,0.42h-0.1v1.05h-0.28v-1.12h0.21v-0.15l0.31-0.31L402.47,137.59
		L402.47,137.59z"/>
	<path class="st0" d="M403.48,137.31h0.28v0.84h0.76v-0.84h0.28v2.04h-0.28v-0.92h-0.73l-0.1-0.11v-0.1h-0.21V137.31z"/>
	<path class="st0" d="M405.52,139.05v-1.42l0.1-0.1h0.1v-0.1l0.1-0.1h0.69l0.1,0.1v0.1h0.1l0.1,0.1v1.42l-0.1,0.1h-0.1v0.1
		l-0.1,0.11h-0.69l-0.1-0.11v-0.1h-0.1L405.52,139.05z M405.93,138.36h0.1v-0.21h0.21V138l0.31-0.31v-0.1h-0.76v0.91L405.93,138.36z
		 M405.79,138.89v0.19h0.76v-0.99l-0.14,0.14h-0.1v0.2h-0.21v0.15L405.79,138.89z"/>
	<path class="st0" d="M407.55,137.62l0.1-0.1h0.1v-0.1l0.1-0.1h0.69l0.1,0.1v0.1h0.1l0.1,0.1v1.42l-0.1,0.1h-0.1v0.1l-0.1,0.11
		h-0.69l-0.1-0.11v-0.1h-0.2v-0.4h0.28v0.33h0.76v-0.57h-0.73l-0.1-0.1v-0.1h-0.1l-0.1-0.1L407.55,137.62L407.55,137.62z
		 M408.59,138.24v-0.64h-0.76v0.64H408.59z"/>
	<path class="st0" d="M409.92,137.5h0.09v-0.09l0.09-0.09h0.29l0.09,0.09v0.09h0.09l0.09,0.09v0.29l-0.09,0.09h-0.09v0.09
		l-0.09,0.09h-0.29l-0.09-0.09v-0.09h-0.09l-0.09-0.09v-0.29L409.92,137.5z M410.42,137.91v-0.35h-0.35v0.35H410.42z"/>
	<path class="st0" d="M411.63,138.55l0.1-0.1h0.1v-0.1l0.1-0.1h0.73v-0.64h-0.76v0.33h-0.28v-0.41h0.2v-0.1l0.1-0.1h0.69l0.1,0.1
		v0.1h0.1l0.1,0.1v0.58l-0.1,0.1h-0.1v0.1l-0.1,0.1h-0.72v0.57h1.03v0.28h-1.11v-0.21h-0.1l-0.1-0.1v-0.5H411.63z"/>
	<path class="st0" d="M380.05,141.34h-1.03v-0.28h1.31v0.58l-0.42,0.42h-0.1v1.04h-0.28v-1.12h0.21v-0.15l0.31-0.31L380.05,141.34
		L380.05,141.34z"/>
	<path class="st0" d="M381.16,141.27h0.1v-0.1l0.1-0.1h0.69l0.1,0.1v0.1h0.21v0.4h-0.28v-0.33h-0.76v0.56h0.72l0.1,0.1v0.1h0.1
		l0.1,0.1v0.58l-0.1,0.1h-0.1v0.1l-0.1,0.1h-0.69l-0.1-0.1v-0.1h-0.1l-0.1-0.1v-1.42L381.16,141.27z M382.09,142.83v-0.65h-0.76
		v0.65H382.09z"/>
	<path class="st0" d="M383.1,142.29l0.1-0.1h0.1v-0.1l0.1-0.11h0.73v-0.64h-0.76v0.33h-0.28v-0.4h0.2v-0.1l0.1-0.1h0.69l0.1,0.1v0.1
		h0.1l0.1,0.1v0.58l-0.1,0.1h-0.1v0.1l-0.1,0.1h-0.72v0.56h1.03v0.28h-1.11v-0.21h-0.1l-0.1-0.1v-0.49H383.1z"/>
	<path class="st0" d="M385.13,141.37l0.1-0.1h0.1v-0.1l0.1-0.1h0.69l0.1,0.1v0.1h0.1l0.1,0.1v1.42l-0.1,0.1h-0.1v0.1l-0.1,0.1h-0.69
		l-0.1-0.1v-0.1h-0.2v-0.41h0.28v0.33h0.76v-0.56h-0.73l-0.1-0.1v-0.1h-0.1l-0.1-0.1L385.13,141.37L385.13,141.37z M386.17,141.98
		v-0.64h-0.76v0.64H386.17z"/>
</g>
<polygon class="st0" points="130.94,52.12 129.28,52.12 99.9,113.58 101.91,113.58 110.63,95.27 110.66,95.27 115.08,86.03 
	115.08,86.03 130.07,54.64 148.64,93.53 126.37,93.53 125.55,95.27 149.51,95.27 158.23,113.58 160.32,113.58 "/>
<g>
	<polygon class="st0" points="200.75,88.63 199.4,89.9 218.03,113.58 220.39,113.58 	"/>
	<polygon class="st0" points="181.38,89.56 192.94,78.29 192.93,78.27 198.54,72.83 198.55,72.82 198.55,72.82 219.43,52.55 
		216.73,52.55 174.53,93.79 174.53,52.55 172.61,52.55 172.61,113.58 174.53,113.58 174.53,96.23 	"/>
</g>
<g>
	<polygon class="st0" points="274.8,74.81 257,52.55 255.35,52.55 255.35,113.58 257.26,113.58 257.26,55.69 272.55,74.81 	"/>
	<polygon class="st0" points="303.3,52.55 303.3,110.44 290.49,94.43 288.24,94.43 303.56,113.58 305.21,113.58 305.21,52.55 	"/>
</g>
<g>
	<polygon class="st0" points="192.4,128.55 192.4,186.44 178.36,168.88 176.11,168.88 192.67,189.58 194.32,189.58 194.32,128.55 	
		"/>
	<polygon class="st0" points="162.67,149.26 146.11,128.55 144.45,128.55 144.45,189.58 146.37,189.58 146.37,131.69 160.42,149.26 
			"/>
</g>
<g>
	<polygon class="st0" points="88.75,149.26 88.75,130.3 129.46,130.3 129.46,128.55 86.83,128.55 86.83,149.26 	"/>
	<rect x="99.9" y="158.02" class="st0" width="25.81" height="1.74"/>
	<polygon class="st0" points="88.75,187.84 88.75,168.88 86.83,168.88 86.83,189.58 129.9,189.58 129.9,187.84 	"/>
</g>
<g>
	<polygon class="st0" points="350.03,84.9 372.52,84.9 372.52,97.87 374.44,97.87 374.44,82.98 350.03,82.98 	"/>
	<path class="st0" d="M353.4,112.77c-0.85,0.07-1.71,0.12-2.59,0.12c-4.48,0-8.46-0.8-11.94-2.4c-3.49-1.6-6.44-3.76-8.85-6.5
		c-2.41-2.73-4.26-5.9-5.54-9.5s-1.92-7.38-1.92-11.33v-0.17c0-3.78,0.67-7.45,2-11.03c1.34-3.57,3.23-6.74,5.67-9.5
		s5.39-4.98,8.85-6.67s7.34-2.53,11.64-2.53c4.36,0,8.08,0.68,11.16,2.05c3.08,1.37,6.04,3.21,8.89,5.54l1.22-1.48
		c-1.51-1.28-3.04-2.4-4.58-3.36s-3.15-1.77-4.84-2.44s-3.49-1.18-5.41-1.53s-4.04-0.52-6.36-0.52c-4.65,0-8.84,0.89-12.55,2.66
		c-3.72,1.77-6.89,4.11-9.5,7.02c-2.62,2.91-4.62,6.26-6.01,10.07c-1.4,3.81-2.09,7.75-2.09,11.81v0.17c0,4.24,0.67,8.27,2,12.07
		c1.34,3.81,3.3,7.14,5.88,9.98c2.59,2.85,5.74,5.12,9.46,6.8c3.72,1.69,7.96,2.53,12.73,2.53c0.91,0,1.8-0.04,2.68-0.1
		L353.4,112.77L353.4,112.77z"/>
</g>
<g>
	<polygon class="st0" points="354.26,163 350.8,158.99 269.88,158.99 269.88,158.79 350.9,158.79 350.92,158.82 354.42,162.86 	"/>
</g>
<g>
	<polygon class="st0" points="164.85,225.42 164.73,225.26 169.11,221.74 169.11,160.34 169.31,160.34 169.31,221.84 	"/>
</g>
<g>
	<polygon class="st0" points="196.12,84.29 195.92,84.29 195.92,23.55 195.95,23.52 199.31,20.56 199.45,20.72 196.12,23.65 	"/>
</g>
<g>
	<polygon class="st0" points="124.01,113.68 118.23,113.68 118.23,94.35 118.43,94.35 118.43,113.48 124.01,113.48 	"/>
</g>
<g>
	<polygon class="st0" points="371.93,140.72 367.46,136.71 367.46,109.97 367.66,109.97 367.66,136.62 372.07,140.58 	"/>
</g>
<g>
	<polygon class="st0" points="86.03,158.86 73.61,158.86 71.82,153.33 72.02,153.27 73.75,158.66 86.03,158.66 	"/>
</g>
<g>
	<polygon class="st0" points="270.34,149.26 270.34,130.3 311.06,130.3 311.06,128.55 268.43,128.55 268.43,149.26 	"/>
	<polygon class="st0" points="270.34,187.84 270.34,168.88 268.43,168.88 268.43,189.58 311.49,189.58 311.49,187.84 	"/>
	<rect x="281.84" y="158.02" class="st0" width="25.47" height="1.74"/>
</g>
<circle class="st1" cx="118.33" cy="94.35" r="1.58"/>
<circle class="st1" cx="169.21" cy="158.76" r="1.58"/>
<circle class="st1" cx="282.1" cy="84.29" r="1.58"/>
<circle class="st1" cx="367.56" cy="108.39" r="1.58"/>
<circle class="st1" cx="196.02" cy="84.29" r="1.58"/>
<circle class="st1" cx="269.88" cy="158.76" r="1.58"/>
<circle class="st1" cx="87.61" cy="158.76" r="1.58"/>
<g>
	<path class="st0" d="M55.84,145.06v-1.43l0.1-0.1h0.1v-0.11l0.11-0.1h0.69l0.1,0.1v0.11h0.1l0.11,0.1v1.43l-0.11,0.1h-0.1v0.1
		l-0.1,0.11h-0.69l-0.11-0.11v-0.1h-0.1L55.84,145.06z M56.25,144.37h0.1v-0.21h0.21v-0.15l0.31-0.31v-0.11h-0.76v0.91L56.25,144.37
		z M56.12,144.9v0.19h0.76v-1l-0.14,0.14h-0.1v0.21h-0.21v0.15L56.12,144.9z"/>
	<path class="st0" d="M57.89,143.63l0.1-0.1h0.1v-0.11l0.11-0.1h0.69l0.1,0.1v0.11h0.1l0.11,0.1v1.43l-0.11,0.1H59v0.1l-0.1,0.11
		H58.2l-0.11-0.11v-0.1h-0.21v-0.41h0.28v0.34h0.76v-0.57H58.2l-0.11-0.1v-0.1h-0.1l-0.1-0.11V143.63z M58.93,144.25v-0.65h-0.76
		v0.65H58.93z"/>
	<path class="st0" d="M60.97,143.6h-1.04v-0.28h1.32v0.58l-0.42,0.42h-0.1v1.05h-0.28v-1.12h0.21v-0.15l0.31-0.31V143.6z"/>
	<path class="st0" d="M62.09,144.37h0.1v-0.13h-0.1l-0.1-0.11v-0.5l0.1-0.1h0.1v-0.11l0.11-0.1h0.69l0.1,0.1v0.11h0.1l0.11,0.1v0.5
		l-0.11,0.11h-0.1v0.13h0.1l0.11,0.11v0.58l-0.11,0.1h-0.1v0.1l-0.1,0.11H62.3l-0.11-0.11v-0.1h-0.1l-0.1-0.1v-0.58L62.09,144.37z
		 M62.26,144.16h0.76v-0.56h-0.76V144.16z M63.02,145.09v-0.65h-0.76v0.65H63.02z"/>
	<path class="st0" d="M64.03,143.32h0.28v0.85h0.76v-0.85h0.28v2.05h-0.28v-0.93h-0.73l-0.1-0.11v-0.1h-0.21V143.32z"/>
	<path class="st0" d="M66.08,145.06v-1.43l0.1-0.1h0.1v-0.11l0.11-0.1h0.69l0.1,0.1v0.11h0.1l0.11,0.1v1.43l-0.11,0.1h-0.1v0.1
		l-0.1,0.11h-0.69l-0.11-0.11v-0.1h-0.1L66.08,145.06z M66.5,144.37h0.1v-0.21h0.21v-0.15l0.31-0.31v-0.11h-0.76v0.91L66.5,144.37z
		 M66.36,144.9v0.19h0.76v-1l-0.14,0.14h-0.1v0.21h-0.21v0.15L66.36,144.9z"/>
	<path class="st0" d="M68.13,145.06v-1.43l0.1-0.1h0.1v-0.11l0.11-0.1h0.69l0.1,0.1v0.11h0.1l0.11,0.1v1.43l-0.11,0.1h-0.1v0.1
		l-0.1,0.11h-0.69l-0.11-0.11v-0.1h-0.1L68.13,145.06z M68.55,144.37h0.1v-0.21h0.21v-0.15l0.31-0.31v-0.11h-0.76v0.91L68.55,144.37
		z M68.41,144.9v0.19h0.76v-1l-0.14,0.14h-0.1v0.21h-0.21v0.15L68.41,144.9z"/>
	<path class="st0" d="M70.4,145.09h0.3v-1.19h-0.3v-0.28h0.3v-0.31h0.28v1.77h0.3v0.28H70.4V145.09z"/>
	<path class="st0" d="M62.09,147.89h0.1v-0.13h-0.1l-0.1-0.11v-0.5l0.1-0.1h0.1v-0.11l0.11-0.1h0.69l0.1,0.1v0.11h0.1l0.11,0.1v0.5
		l-0.11,0.11h-0.1v0.13h0.1l0.11,0.11v0.58l-0.11,0.1h-0.1v0.1l-0.1,0.11H62.3l-0.11-0.11v-0.1h-0.1l-0.1-0.1v-0.58L62.09,147.89z
		 M62.26,147.68h0.76v-0.56h-0.76V147.68z M63.02,148.6v-0.65h-0.76v0.65H63.02z"/>
	<path class="st0" d="M65.07,147.11h-1.04v-0.28h1.32v0.58l-0.42,0.42h-0.1v1.05h-0.28v-1.12h0.21v-0.15l0.31-0.31V147.11z"/>
	<path class="st0" d="M67.4,149.16h-1.32v-0.28h1.32V149.16z"/>
	<path class="st0" d="M68.13,148.57v-1.43l0.1-0.1h0.1v-0.11l0.11-0.1h0.69l0.1,0.1v0.11h0.1l0.11,0.1v1.43l-0.11,0.1h-0.1v0.1
		l-0.1,0.11h-0.69l-0.11-0.11v-0.1h-0.1L68.13,148.57z M68.55,147.89h0.1v-0.21h0.21v-0.15l0.31-0.31v-0.11h-0.76v0.91L68.55,147.89
		z M68.41,148.42v0.19h0.76v-1l-0.14,0.14h-0.1v0.21h-0.21v0.15L68.41,148.42z"/>
	<path class="st0" d="M70.18,147.14l0.1-0.1h0.1v-0.11l0.11-0.1h0.69l0.1,0.1v0.11h0.1l0.11,0.1v1.43l-0.11,0.1h-0.1v0.1l-0.1,0.11
		h-0.69l-0.11-0.11v-0.1h-0.21v-0.41h0.28v0.34h0.76v-0.57h-0.73l-0.11-0.1v-0.1h-0.1l-0.1-0.11V147.14z M71.22,147.76v-0.65h-0.76
		v0.65H71.22z"/>
</g>
<g>
	<path class="st0" d="M280,70.68h0.28v0.34h0.76v-0.65h-0.73l-0.11-0.1v-0.1H280v-0.92h1.32v0.28h-1.04v0.56H281l0.1,0.11v0.1h0.1
		l0.11,0.11v0.58l-0.11,0.1h-0.1v0.1L281,71.3h-0.69l-0.11-0.11v-0.1H280V70.68z"/>
	<path class="st0" d="M282.04,70.99v-1.43l0.1-0.1h0.1v-0.11l0.11-0.1h0.69l0.1,0.1v0.11h0.1l0.11,0.1v1.43l-0.11,0.1h-0.1v0.1
		l-0.1,0.11h-0.69l-0.11-0.11v-0.1h-0.1L282.04,70.99z M282.46,70.3h0.1v-0.21h0.21v-0.15l0.31-0.31v-0.11h-0.76v0.91L282.46,70.3z
		 M282.32,70.83v0.19h0.76v-1l-0.14,0.14h-0.1v0.21h-0.21v0.15L282.32,70.83z"/>
	<path class="st0" d="M284.09,70.99v-1.43l0.1-0.1h0.1v-0.11l0.11-0.1h0.69l0.1,0.1v0.11h0.1l0.11,0.1v1.43l-0.11,0.1h-0.1v0.1
		l-0.1,0.11h-0.69l-0.11-0.11v-0.1h-0.1L284.09,70.99z M284.51,70.3h0.1v-0.21h0.21v-0.15l0.31-0.31v-0.11h-0.76v0.91L284.51,70.3z
		 M284.37,70.83v0.19h0.76v-1l-0.14,0.14h-0.1v0.21h-0.21v0.15L284.37,70.83z"/>
	<path class="st0" d="M286.36,71.02h0.3v-1.19h-0.3v-0.28h0.3v-0.31h0.28v1.77h0.3v0.28h-0.88V71.02z"/>
	<path class="st0" d="M280.1,73.81h0.1v-0.13h-0.1l-0.1-0.11v-0.5l0.1-0.1h0.1v-0.11l0.11-0.1H281l0.1,0.1v0.11h0.1l0.11,0.1v0.5
		l-0.11,0.11h-0.1v0.13h0.1l0.11,0.11v0.58l-0.11,0.1h-0.1v0.1l-0.1,0.11h-0.69l-0.11-0.11v-0.1h-0.1l-0.1-0.1v-0.58L280.1,73.81z
		 M280.27,73.6h0.76v-0.56h-0.76V73.6z M281.03,74.53v-0.65h-0.76v0.65H281.03z"/>
	<path class="st0" d="M282.26,74.53h0.3v-1.19h-0.3v-0.28h0.3v-0.31h0.28v1.77h0.3v0.28h-0.88V74.53z"/>
	<path class="st0" d="M284.31,74.53h0.3v-1.19h-0.3v-0.28h0.3v-0.31h0.28v1.77h0.3v0.28h-0.88V74.53z"/>
	<path class="st0" d="M287.61,74.08H286V73.8h1.61V74.08z"/>
	<path class="st0" d="M288.19,74l0.1-0.11h0.1v-0.1l0.11-0.11h0.73v-0.65h-0.76v0.34h-0.28v-0.41h0.21v-0.11l0.11-0.1h0.69l0.11,0.1
		v0.11h0.1l0.11,0.1v0.58l-0.11,0.11h-0.1v0.1l-0.11,0.1h-0.73v0.57h1.04v0.28h-1.11V74.6h-0.1l-0.1-0.1V74z"/>
	<path class="st0" d="M290.46,74.53h0.3v-1.19h-0.3v-0.28h0.3v-0.31h0.28v1.77h0.3v0.28h-0.88V74.53z"/>
	<path class="st0" d="M292.29,73.07l0.1-0.1h0.1v-0.11l0.11-0.1h0.69l0.1,0.1v0.11h0.1l0.11,0.1v1.43l-0.11,0.1h-0.1v0.1l-0.1,0.11
		h-0.69l-0.11-0.11v-0.1h-0.21v-0.41h0.28v0.34h0.76v-0.57h-0.73l-0.11-0.1v-0.1h-0.1l-0.1-0.11V73.07z M293.33,73.68v-0.65h-0.76
		v0.65H293.33z"/>
</g>
<g>
	<path class="st0" d="M347.45,169.87h0.28v0.34h0.76v-0.65h-0.73l-0.11-0.1v-0.1h-0.21v-0.92h1.32v0.28h-1.04v0.56h0.73l0.11,0.11
		v0.1h0.1l0.11,0.11v0.58l-0.11,0.1h-0.1v0.1l-0.11,0.11h-0.69l-0.11-0.11v-0.1h-0.21V169.87z"/>
	<path class="st0" d="M349.6,168.64h0.1v-0.11l0.11-0.1h0.69l0.11,0.1v0.11h0.21v0.41h-0.28v-0.34h-0.76v0.56h0.73l0.11,0.11v0.1
		h0.1l0.11,0.11v0.58l-0.11,0.1h-0.1v0.1l-0.11,0.11h-0.69l-0.11-0.11v-0.1h-0.1l-0.1-0.1v-1.43L349.6,168.64z M350.54,170.2v-0.65
		h-0.76v0.65H350.54z"/>
	<path class="st0" d="M352.58,168.71h-1.04v-0.28h1.32v0.58l-0.42,0.42h-0.1v1.05h-0.28v-1.12h0.21v-0.15l0.31-0.31V168.71z"/>
	<path class="st0" d="M354.91,170.76h-1.32v-0.28h1.32V170.76z"/>
	<path class="st0" d="M355.64,170.17v-1.43l0.1-0.1h0.1v-0.11l0.11-0.1h0.69l0.1,0.1v0.11h0.1l0.11,0.1v1.43l-0.11,0.1h-0.1v0.1
		l-0.1,0.11h-0.69l-0.11-0.11v-0.1h-0.1L355.64,170.17z M356.06,169.48h0.1v-0.21h0.21v-0.15l0.31-0.31v-0.11h-0.76v0.91
		L356.06,169.48z M355.92,170.01v0.19h0.76v-1l-0.14,0.14h-0.1v0.21h-0.21v0.15L355.92,170.01z"/>
	<path class="st0" d="M357.69,168.74l0.1-0.1h0.1v-0.11l0.11-0.1h0.69l0.1,0.1v0.11h0.1l0.11,0.1v1.43l-0.11,0.1h-0.1v0.1l-0.1,0.11
		H358l-0.11-0.11v-0.1h-0.21v-0.41h0.28v0.34h0.76v-0.57H358l-0.11-0.1v-0.1h-0.1l-0.1-0.11V168.74z M358.73,169.36v-0.65h-0.76
		v0.65H358.73z"/>
	<path class="st0" d="M359.74,170.27v-0.41h0.28v0.34h0.76v-0.65h-0.53v-0.28h0.53v-0.56h-0.76v0.34h-0.28v-0.41h0.21v-0.11
		l0.11-0.1h0.69l0.11,0.1v0.11h0.1l0.11,0.1v0.5l-0.11,0.11h-0.1v0.13h0.1l0.11,0.11v0.58l-0.11,0.1h-0.1v0.1l-0.11,0.11h-0.69
		l-0.11-0.11v-0.1H359.74z"/>
	<path class="st0" d="M361.79,169.67l0.1-0.11h0.1v-0.1l0.11-0.11h0.73v-0.65h-0.76v0.34h-0.28v-0.41H362v-0.11l0.11-0.1h0.69
		l0.11,0.1v0.11h0.1l0.11,0.1v0.58l-0.11,0.11h-0.1v0.1l-0.11,0.1h-0.73v0.57h1.04v0.28H362v-0.21h-0.1l-0.1-0.1V169.67z"/>
	<path class="st0" d="M347.55,172.15h0.1v-0.11l0.11-0.1h0.69l0.11,0.1v0.11h0.21v0.41h-0.28v-0.34h-0.76v0.56h0.73l0.11,0.11v0.1
		h0.1l0.11,0.11v0.58l-0.11,0.1h-0.1v0.1l-0.11,0.11h-0.69l-0.11-0.11v-0.1h-0.1l-0.1-0.1v-1.43L347.55,172.15z M348.49,173.71
		v-0.65h-0.76v0.65H348.49z"/>
	<path class="st0" d="M350.54,172.22h-1.04v-0.28h1.32v0.58l-0.42,0.42h-0.1v1.05h-0.28v-1.12h0.21v-0.15l0.31-0.31V172.22z"/>
	<path class="st0" d="M351.54,173.38h0.28v0.34h0.76v-0.65h-0.73l-0.11-0.1v-0.1h-0.21v-0.92h1.32v0.28h-1.04v0.56h0.73l0.11,0.11
		v0.1h0.1l0.11,0.11v0.58l-0.11,0.1h-0.1v0.1l-0.11,0.11h-0.69l-0.11-0.11v-0.1h-0.21V173.38z"/>
	<path class="st0" d="M353.59,171.94h0.28v0.85h0.76v-0.85h0.28v2.05h-0.28v-0.93h-0.73l-0.1-0.11v-0.1h-0.21V171.94z"/>
	<path class="st0" d="M355.64,172.25l0.1-0.1h0.1v-0.11l0.11-0.1h0.69l0.1,0.1v0.11h0.1l0.11,0.1v1.43l-0.11,0.1h-0.1v0.1l-0.1,0.11
		h-0.69l-0.11-0.11v-0.1h-0.21v-0.41h0.28v0.34h0.76v-0.57h-0.73l-0.11-0.1v-0.1h-0.1l-0.1-0.11V172.25z M356.68,172.87v-0.65h-0.76
		v0.65H356.68z"/>
</g>
<g>
	<path class="st0" d="M205.03,31.45v-0.28h0.45v-0.45h0.28v0.45h0.45v0.28h-0.45v0.45h-0.28v-0.45H205.03z"/>
	<path class="st0" d="M208.05,30.58v-0.45h0.28v0.56l-1.04,1.04v0.45h-0.28v-0.56L208.05,30.58z"/>
	<path class="st0" d="M209.17,31.18h0.1v-0.13h-0.1l-0.1-0.11v-0.5l0.1-0.1h0.1v-0.11l0.11-0.1h0.69l0.1,0.1v0.11h0.1l0.11,0.1v0.5
		l-0.11,0.11h-0.1v0.13h0.1l0.11,0.11v0.58l-0.11,0.1h-0.1v0.1l-0.1,0.11h-0.69l-0.11-0.11v-0.1h-0.1l-0.1-0.1v-0.58L209.17,31.18z
		 M209.34,30.97h0.76v-0.56h-0.76V30.97z M210.1,31.9v-0.65h-0.76v0.65H210.1z"/>
	<path class="st0" d="M212.15,30.41h-1.04v-0.28h1.32v0.58l-0.42,0.42h-0.1v1.05h-0.28v-1.12h0.21v-0.15l0.31-0.31V30.41z"/>
	<path class="st0" d="M213.16,31.37l0.1-0.11h0.1v-0.1l0.11-0.11h0.73v-0.65h-0.76v0.34h-0.28v-0.41h0.21v-0.11l0.11-0.1h0.69
		l0.1,0.1v0.11h0.1l0.11,0.1v0.58l-0.11,0.11h-0.1v0.1l-0.1,0.1h-0.73v0.57h1.04v0.28h-1.11v-0.21h-0.1l-0.1-0.1V31.37z"/>
	<path class="st0" d="M215.21,30.13h0.28v0.85h0.76v-0.85h0.28v2.05h-0.28v-0.93h-0.73l-0.1-0.11v-0.1h-0.21V30.13z"/>
	<path class="st0" d="M217.26,31.37l0.1-0.11h0.1v-0.1l0.11-0.11h0.73v-0.65h-0.76v0.34h-0.28v-0.41h0.21v-0.11l0.11-0.1h0.69
		l0.11,0.1v0.11h0.1l0.11,0.1v0.58l-0.11,0.11h-0.1v0.1l-0.11,0.1h-0.73v0.57h1.04v0.28h-1.11v-0.21h-0.1l-0.1-0.1V31.37z"/>
	<path class="st0" d="M219.31,31.87v-1.43l0.1-0.1h0.1v-0.11l0.11-0.1h0.69l0.11,0.1v0.11h0.1l0.11,0.1v1.43l-0.11,0.1h-0.1v0.1
		l-0.11,0.11h-0.69l-0.11-0.11v-0.1h-0.1L219.31,31.87z M219.72,31.18h0.1v-0.21h0.21v-0.15l0.31-0.31v-0.11h-0.76v0.91
		L219.72,31.18z M219.59,31.71v0.19h0.76v-1l-0.14,0.14h-0.1v0.21h-0.21v0.15L219.59,31.71z"/>
	<path class="st0" d="M221.36,31.87v-1.43l0.1-0.1h0.1v-0.11l0.11-0.1h0.69l0.11,0.1v0.11h0.1l0.11,0.1v1.43l-0.11,0.1h-0.1v0.1
		l-0.11,0.11h-0.69l-0.11-0.11v-0.1h-0.1L221.36,31.87z M221.77,31.18h0.1v-0.21h0.21v-0.15l0.31-0.31v-0.11h-0.76v0.91
		L221.77,31.18z M221.64,31.71v0.19h0.76v-1l-0.14,0.14h-0.1v0.21h-0.21v0.15L221.64,31.71z"/>
	<path class="st0" d="M223.63,31.9h0.3v-1.19h-0.3v-0.28h0.3v-0.31h0.28v1.77h0.3v0.28h-0.88V31.9z"/>
	<path class="st0" d="M204.97,35.08h0.28v0.34H206v-0.65h-0.73l-0.11-0.1v-0.1h-0.21v-0.92h1.32v0.28h-1.04v0.56h0.73l0.1,0.11v0.1
		h0.1l0.11,0.11v0.58l-0.11,0.1h-0.1v0.1l-0.1,0.11h-0.69l-0.11-0.11v-0.1h-0.21V35.08z"/>
	<path class="st0" d="M207.12,34.69h0.1v-0.13h-0.1l-0.1-0.11v-0.5l0.1-0.1h0.1v-0.11l0.11-0.1h0.69l0.1,0.1v0.11h0.1l0.11,0.1v0.5
		l-0.11,0.11h-0.1v0.13h0.1l0.11,0.11v0.58l-0.11,0.1h-0.1v0.1l-0.1,0.11h-0.69l-0.11-0.11v-0.1h-0.1l-0.1-0.1V34.8L207.12,34.69z
		 M207.29,34.49h0.76v-0.56h-0.76V34.49z M208.05,35.41v-0.65h-0.76v0.65H208.05z"/>
	<path class="st0" d="M209.17,34.69h0.1v-0.13h-0.1l-0.1-0.11v-0.5l0.1-0.1h0.1v-0.11l0.11-0.1h0.69l0.1,0.1v0.11h0.1l0.11,0.1v0.5
		l-0.11,0.11h-0.1v0.13h0.1l0.11,0.11v0.58l-0.11,0.1h-0.1v0.1l-0.1,0.11h-0.69l-0.11-0.11v-0.1h-0.1l-0.1-0.1V34.8L209.17,34.69z
		 M209.34,34.49h0.76v-0.56h-0.76V34.49z M210.1,35.41v-0.65h-0.76v0.65H210.1z"/>
</g>
<g>
	<path class="st0" d="M205.07,18.8h0.1v-0.11l0.11-0.1h0.69l0.1,0.1v0.11h0.21v0.41H206v-0.34h-0.76v0.56h0.73l0.1,0.11v0.1h0.1
		l0.11,0.11v0.58l-0.11,0.1h-0.1v0.1l-0.1,0.11h-0.69l-0.11-0.11v-0.1h-0.1l-0.1-0.1V18.9L205.07,18.8z M206,20.36v-0.65h-0.76v0.65
		H206z"/>
	<path class="st0" d="M208.05,18.87h-1.04v-0.28h1.32v0.58l-0.42,0.42h-0.1v1.05h-0.28v-1.12h0.21v-0.15l0.31-0.31V18.87z"/>
	<path class="st0" d="M209.06,20.02h0.28v0.34h0.76v-0.65h-0.73l-0.11-0.1v-0.1h-0.21v-0.92h1.32v0.28h-1.04v0.56h0.73l0.1,0.11v0.1
		h0.1l0.11,0.11v0.58l-0.11,0.1h-0.1v0.1l-0.1,0.11h-0.69l-0.11-0.11v-0.1h-0.21V20.02z"/>
	<path class="st0" d="M211.11,18.59h0.28v0.85h0.76v-0.85h0.28v2.05h-0.28v-0.93h-0.73l-0.1-0.11v-0.1h-0.21V18.59z"/>
	<path class="st0" d="M213.16,20.02h0.28v0.34h0.76v-0.65h-0.73l-0.11-0.1v-0.1h-0.21v-0.92h1.32v0.28h-1.04v0.56h0.73l0.1,0.11v0.1
		h0.1l0.11,0.11v0.58l-0.11,0.1h-0.1v0.1l-0.1,0.11h-0.69l-0.11-0.11v-0.1h-0.21V20.02z"/>
	<path class="st0" d="M216.53,20.92h-1.32v-0.28h1.32V20.92z"/>
	<path class="st0" d="M217.26,20.02h0.28v0.34h0.76v-0.65h-0.73l-0.11-0.1v-0.1h-0.21v-0.92h1.32v0.28h-1.04v0.56h0.73l0.11,0.11
		v0.1h0.1l0.11,0.11v0.58l-0.11,0.1h-0.1v0.1l-0.11,0.11h-0.69l-0.11-0.11v-0.1h-0.21V20.02z"/>
	<path class="st0" d="M219.41,19.64h0.1v-0.13h-0.1l-0.1-0.11v-0.5l0.1-0.1h0.1v-0.11l0.11-0.1h0.69l0.11,0.1v0.11h0.1l0.11,0.1v0.5
		l-0.11,0.11h-0.1v0.13h0.1l0.11,0.11v0.58l-0.11,0.1h-0.1v0.1l-0.11,0.11h-0.69l-0.11-0.11v-0.1h-0.1l-0.1-0.1v-0.58L219.41,19.64z
		 M219.59,19.43h0.76v-0.56h-0.76V19.43z M220.35,20.36v-0.65h-0.76v0.65H220.35z"/>
	<path class="st0" d="M221.46,19.64h0.1v-0.13h-0.1l-0.1-0.11v-0.5l0.1-0.1h0.1v-0.11l0.11-0.1h0.69l0.11,0.1v0.11h0.1l0.11,0.1v0.5
		l-0.11,0.11h-0.1v0.13h0.1l0.11,0.11v0.58l-0.11,0.1h-0.1v0.1l-0.11,0.11h-0.69l-0.11-0.11v-0.1h-0.1l-0.1-0.1v-0.58L221.46,19.64z
		 M221.64,19.43h0.76v-0.56h-0.76V19.43z M222.4,20.36v-0.65h-0.76v0.65H222.4z"/>
	<path class="st0" d="M204.97,22.41l0.1-0.1h0.1V22.2l0.11-0.1h0.69l0.1,0.1v0.11h0.1l0.11,0.1v1.43l-0.11,0.1h-0.1v0.1l-0.1,0.11
		h-0.69l-0.11-0.11v-0.1h-0.21v-0.41h0.28v0.34H206v-0.57h-0.73l-0.11-0.1v-0.1h-0.1l-0.1-0.11V22.41z M206,23.03v-0.65h-0.76v0.65
		H206z"/>
	<path class="st0" d="M207.01,23.84v-1.43l0.1-0.1h0.1V22.2l0.11-0.1h0.69l0.1,0.1v0.11h0.1l0.11,0.1v1.43l-0.11,0.1h-0.1v0.1
		l-0.1,0.11h-0.69l-0.11-0.11v-0.1h-0.1L207.01,23.84z M207.43,23.15h0.1v-0.21h0.21V22.8l0.31-0.31v-0.11h-0.76v0.91L207.43,23.15z
		 M207.29,23.69v0.19h0.76v-1l-0.14,0.14h-0.1v0.21h-0.21v0.15L207.29,23.69z"/>
	<path class="st0" d="M209.17,23.15h0.1v-0.13h-0.1l-0.1-0.11v-0.5l0.1-0.1h0.1V22.2l0.11-0.1h0.69l0.1,0.1v0.11h0.1l0.11,0.1v0.5
		l-0.11,0.11h-0.1v0.13h0.1l0.11,0.11v0.58l-0.11,0.1h-0.1v0.1l-0.1,0.11h-0.69l-0.11-0.11v-0.1h-0.1l-0.1-0.1v-0.58L209.17,23.15z
		 M209.34,22.95h0.76v-0.56h-0.76V22.95z M210.1,23.87v-0.65h-0.76v0.65H210.1z"/>
	<path class="st0" d="M211.11,23.84v-1.43l0.1-0.1h0.1V22.2l0.11-0.1h0.69l0.1,0.1v0.11h0.1l0.11,0.1v1.43l-0.11,0.1h-0.1v0.1
		l-0.1,0.11h-0.69l-0.11-0.11v-0.1h-0.1L211.11,23.84z M211.53,23.15h0.1v-0.21h0.21V22.8l0.31-0.31v-0.11h-0.76v0.91L211.53,23.15z
		 M211.39,23.69v0.19h0.76v-1l-0.14,0.14h-0.1v0.21h-0.21v0.15L211.39,23.69z"/>
	<path class="st0" d="M213.16,23.34l0.1-0.11h0.1v-0.1l0.11-0.11h0.73v-0.65h-0.76v0.34h-0.28v-0.41h0.21V22.2l0.11-0.1h0.69
		l0.1,0.1v0.11h0.1l0.11,0.1v0.58l-0.11,0.11h-0.1v0.1l-0.1,0.1h-0.73v0.57h1.04v0.28h-1.11v-0.21h-0.1l-0.1-0.1V23.34z"/>
	<path class="st0" d="M215.43,23.87h0.3v-1.19h-0.3v-0.28h0.3V22.1h0.28v1.77h0.3v0.28h-0.88V23.87z"/>
</g>
</svg>
