<svg aria-roledescription="gantt" role="graphics-document document" style="max-width: 784px; background-color: white;" viewBox="0 0 784 316" xmlns:xlink="http://www.w3.org/1999/xlink" xmlns="http://www.w3.org/2000/svg" width="100%" id="my-svg"><style>#my-svg{font-family:"trebuchet ms",verdana,arial,sans-serif;font-size:16px;fill:#333;}#my-svg .error-icon{fill:#552222;}#my-svg .error-text{fill:#552222;stroke:#552222;}#my-svg .edge-thickness-normal{stroke-width:1px;}#my-svg .edge-thickness-thick{stroke-width:3.5px;}#my-svg .edge-pattern-solid{stroke-dasharray:0;}#my-svg .edge-thickness-invisible{stroke-width:0;fill:none;}#my-svg .edge-pattern-dashed{stroke-dasharray:3;}#my-svg .edge-pattern-dotted{stroke-dasharray:2;}#my-svg .marker{fill:#333333;stroke:#333333;}#my-svg .marker.cross{stroke:#333333;}#my-svg svg{font-family:"trebuchet ms",verdana,arial,sans-serif;font-size:16px;}#my-svg p{margin:0;}#my-svg .mermaid-main-font{font-family:var(--mermaid-font-family, "trebuchet ms", verdana, arial, sans-serif);}#my-svg .exclude-range{fill:#eeeeee;}#my-svg .section{stroke:none;opacity:0.2;}#my-svg .section0{fill:rgba(102, 102, 255, 0.49);}#my-svg .section2{fill:#fff400;}#my-svg .section1,#my-svg .section3{fill:white;opacity:0.2;}#my-svg .sectionTitle0{fill:#333;}#my-svg .sectionTitle1{fill:#333;}#my-svg .sectionTitle2{fill:#333;}#my-svg .sectionTitle3{fill:#333;}#my-svg .sectionTitle{text-anchor:start;font-family:var(--mermaid-font-family, "trebuchet ms", verdana, arial, sans-serif);}#my-svg .grid .tick{stroke:lightgrey;opacity:0.8;shape-rendering:crispEdges;}#my-svg .grid .tick text{font-family:"trebuchet ms",verdana,arial,sans-serif;fill:#333;}#my-svg .grid path{stroke-width:0;}#my-svg .today{fill:none;stroke:red;stroke-width:2px;}#my-svg .task{stroke-width:2;}#my-svg .taskText{text-anchor:middle;font-family:var(--mermaid-font-family, "trebuchet ms", verdana, arial, sans-serif);}#my-svg .taskTextOutsideRight{fill:black;text-anchor:start;font-family:var(--mermaid-font-family, "trebuchet ms", verdana, arial, sans-serif);}#my-svg .taskTextOutsideLeft{fill:black;text-anchor:end;}#my-svg .task.clickable{cursor:pointer;}#my-svg .taskText.clickable{cursor:pointer;fill:#003163!important;font-weight:bold;}#my-svg .taskTextOutsideLeft.clickable{cursor:pointer;fill:#003163!important;font-weight:bold;}#my-svg .taskTextOutsideRight.clickable{cursor:pointer;fill:#003163!important;font-weight:bold;}#my-svg .taskText0,#my-svg .taskText1,#my-svg .taskText2,#my-svg .taskText3{fill:white;}#my-svg .task0,#my-svg .task1,#my-svg .task2,#my-svg .task3{fill:#8a90dd;stroke:#534fbc;}#my-svg .taskTextOutside0,#my-svg .taskTextOutside2{fill:black;}#my-svg .taskTextOutside1,#my-svg .taskTextOutside3{fill:black;}#my-svg .active0,#my-svg .active1,#my-svg .active2,#my-svg .active3{fill:#bfc7ff;stroke:#534fbc;}#my-svg .activeText0,#my-svg .activeText1,#my-svg .activeText2,#my-svg .activeText3{fill:black!important;}#my-svg .done0,#my-svg .done1,#my-svg .done2,#my-svg .done3{stroke:grey;fill:lightgrey;stroke-width:2;}#my-svg .doneText0,#my-svg .doneText1,#my-svg .doneText2,#my-svg .doneText3{fill:black!important;}#my-svg .crit0,#my-svg .crit1,#my-svg .crit2,#my-svg .crit3{stroke:#ff8888;fill:red;stroke-width:2;}#my-svg .activeCrit0,#my-svg .activeCrit1,#my-svg .activeCrit2,#my-svg .activeCrit3{stroke:#ff8888;fill:#bfc7ff;stroke-width:2;}#my-svg .doneCrit0,#my-svg .doneCrit1,#my-svg .doneCrit2,#my-svg .doneCrit3{stroke:#ff8888;fill:lightgrey;stroke-width:2;cursor:pointer;shape-rendering:crispEdges;}#my-svg .milestone{transform:rotate(45deg) scale(0.8,0.8);}#my-svg .milestoneText{font-style:italic;}#my-svg .doneCritText0,#my-svg .doneCritText1,#my-svg .doneCritText2,#my-svg .doneCritText3{fill:black!important;}#my-svg .activeCritText0,#my-svg .activeCritText1,#my-svg .activeCritText2,#my-svg .activeCritText3{fill:black!important;}#my-svg .titleText{text-anchor:middle;font-size:18px;fill:#333;font-family:var(--mermaid-font-family, "trebuchet ms", verdana, arial, sans-serif);}#my-svg :root{--mermaid-font-family:"trebuchet ms",verdana,arial,sans-serif;}</style><g/><g><rect class="exclude-range" transform-origin="78px 158px" height="231" width="1" y="35" x="78" id="exclude-2025-07-05"/><rect class="exclude-range" transform-origin="82.5px 182px" height="231" width="1" y="35" x="82" id="exclude-2025-07-12"/><rect class="exclude-range" transform-origin="87px 206px" height="231" width="1" y="35" x="87" id="exclude-2025-07-19"/><rect class="exclude-range" transform-origin="91.5px 230px" height="231" width="2" y="35" x="91" id="exclude-2025-07-26"/><rect class="exclude-range" transform-origin="96px 254px" height="231" width="1" y="35" x="96" id="exclude-2025-08-02"/><rect class="exclude-range" transform-origin="100.5px 278px" height="231" width="2" y="35" x="100" id="exclude-2025-08-09"/><rect class="exclude-range" transform-origin="105.5px 302px" height="231" width="1" y="35" x="105" id="exclude-2025-08-16"/><rect class="exclude-range" transform-origin="109.5px 326px" height="231" width="2" y="35" x="109" id="exclude-2025-08-23"/><rect class="exclude-range" transform-origin="114.5px 350px" height="231" width="1" y="35" x="114" id="exclude-2025-08-30"/><rect class="exclude-range" transform-origin="119px 374px" height="231" width="1" y="35" x="119" id="exclude-2025-09-06"/><rect class="exclude-range" transform-origin="123.5px 398px" height="231" width="1" y="35" x="123" id="exclude-2025-09-13"/><rect class="exclude-range" transform-origin="128px 422px" height="231" width="1" y="35" x="128" id="exclude-2025-09-20"/><rect class="exclude-range" transform-origin="132.5px 446px" height="231" width="2" y="35" x="132" id="exclude-2025-09-27"/><rect class="exclude-range" transform-origin="137px 470px" height="231" width="1" y="35" x="137" id="exclude-2025-10-04"/><rect class="exclude-range" transform-origin="141.5px 494px" height="231" width="2" y="35" x="141" id="exclude-2025-10-11"/><rect class="exclude-range" transform-origin="146.5px 518px" height="231" width="1" y="35" x="146" id="exclude-2025-10-18"/><rect class="exclude-range" transform-origin="150.5px 542px" height="231" width="2" y="35" x="150" id="exclude-2025-10-25"/><rect class="exclude-range" transform-origin="155.5px 566px" height="231" width="1" y="35" x="155" id="exclude-2025-11-01"/><rect class="exclude-range" transform-origin="160px 590px" height="231" width="1" y="35" x="160" id="exclude-2025-11-08"/><rect class="exclude-range" transform-origin="164.5px 614px" height="231" width="1" y="35" x="164" id="exclude-2025-11-15"/><rect class="exclude-range" transform-origin="169px 638px" height="231" width="1" y="35" x="169" id="exclude-2025-11-22"/><rect class="exclude-range" transform-origin="173.5px 662px" height="231" width="2" y="35" x="173" id="exclude-2025-11-29"/><rect class="exclude-range" transform-origin="178px 686px" height="231" width="1" y="35" x="178" id="exclude-2025-12-06"/><rect class="exclude-range" transform-origin="182.5px 710px" height="231" width="2" y="35" x="182" id="exclude-2025-12-13"/><rect class="exclude-range" transform-origin="187.5px 734px" height="231" width="1" y="35" x="187" id="exclude-2025-12-20"/><rect class="exclude-range" transform-origin="191.5px 758px" height="231" width="2" y="35" x="191" id="exclude-2025-12-27"/><rect class="exclude-range" transform-origin="196.5px 782px" height="231" width="1" y="35" x="196" id="exclude-2026-01-03"/><rect class="exclude-range" transform-origin="201px 806px" height="231" width="1" y="35" x="201" id="exclude-2026-01-10"/><rect class="exclude-range" transform-origin="205.5px 830px" height="231" width="1" y="35" x="205" id="exclude-2026-01-17"/><rect class="exclude-range" transform-origin="210px 854px" height="231" width="1" y="35" x="210" id="exclude-2026-01-24"/><rect class="exclude-range" transform-origin="214.5px 878px" height="231" width="1" y="35" x="214" id="exclude-2026-01-31"/><rect class="exclude-range" transform-origin="219px 902px" height="231" width="1" y="35" x="219" id="exclude-2026-02-07"/><rect class="exclude-range" transform-origin="223.5px 926px" height="231" width="2" y="35" x="223" id="exclude-2026-02-14"/><rect class="exclude-range" transform-origin="228px 950px" height="231" width="1" y="35" x="228" id="exclude-2026-02-21"/><rect class="exclude-range" transform-origin="232.5px 974px" height="231" width="2" y="35" x="232" id="exclude-2026-02-28"/><rect class="exclude-range" transform-origin="237.5px 998px" height="231" width="1" y="35" x="237" id="exclude-2026-03-07"/><rect class="exclude-range" transform-origin="241.5px 1022px" height="231" width="2" y="35" x="241" id="exclude-2026-03-14"/><rect class="exclude-range" transform-origin="246.5px 1046px" height="231" width="1" y="35" x="246" id="exclude-2026-03-21"/><rect class="exclude-range" transform-origin="251px 1070px" height="231" width="1" y="35" x="251" id="exclude-2026-03-28"/><rect class="exclude-range" transform-origin="255.5px 1094px" height="231" width="1" y="35" x="255" id="exclude-2026-04-04"/><rect class="exclude-range" transform-origin="260px 1118px" height="231" width="1" y="35" x="260" id="exclude-2026-04-11"/><rect class="exclude-range" transform-origin="264.5px 1142px" height="231" width="2" y="35" x="264" id="exclude-2026-04-18"/><rect class="exclude-range" transform-origin="269px 1166px" height="231" width="1" y="35" x="269" id="exclude-2026-04-25"/><rect class="exclude-range" transform-origin="273.5px 1190px" height="231" width="2" y="35" x="273" id="exclude-2026-05-02"/><rect class="exclude-range" transform-origin="278.5px 1214px" height="231" width="1" y="35" x="278" id="exclude-2026-05-09"/><rect class="exclude-range" transform-origin="282.5px 1238px" height="231" width="2" y="35" x="282" id="exclude-2026-05-16"/><rect class="exclude-range" transform-origin="287.5px 1262px" height="231" width="1" y="35" x="287" id="exclude-2026-05-23"/><rect class="exclude-range" transform-origin="292px 1286px" height="231" width="1" y="35" x="292" id="exclude-2026-05-30"/><rect class="exclude-range" transform-origin="296.5px 1310px" height="231" width="1" y="35" x="296" id="exclude-2026-06-06"/><rect class="exclude-range" transform-origin="301px 1334px" height="231" width="1" y="35" x="301" id="exclude-2026-06-13"/><rect class="exclude-range" transform-origin="305.5px 1358px" height="231" width="1" y="35" x="305" id="exclude-2026-06-20"/><rect class="exclude-range" transform-origin="310px 1382px" height="231" width="1" y="35" x="310" id="exclude-2026-06-27"/><rect class="exclude-range" transform-origin="314.5px 1406px" height="231" width="2" y="35" x="314" id="exclude-2026-07-04"/><rect class="exclude-range" transform-origin="319px 1430px" height="231" width="1" y="35" x="319" id="exclude-2026-07-11"/><rect class="exclude-range" transform-origin="323.5px 1454px" height="231" width="2" y="35" x="323" id="exclude-2026-07-18"/><rect class="exclude-range" transform-origin="328.5px 1478px" height="231" width="1" y="35" x="328" id="exclude-2026-07-25"/><rect class="exclude-range" transform-origin="332.5px 1502px" height="231" width="2" y="35" x="332" id="exclude-2026-08-01"/><rect class="exclude-range" transform-origin="337.5px 1526px" height="231" width="1" y="35" x="337" id="exclude-2026-08-08"/><rect class="exclude-range" transform-origin="342px 1550px" height="231" width="1" y="35" x="342" id="exclude-2026-08-15"/><rect class="exclude-range" transform-origin="346.5px 1574px" height="231" width="1" y="35" x="346" id="exclude-2026-08-22"/><rect class="exclude-range" transform-origin="351px 1598px" height="231" width="1" y="35" x="351" id="exclude-2026-08-29"/><rect class="exclude-range" transform-origin="355.5px 1622px" height="231" width="2" y="35" x="355" id="exclude-2026-09-05"/><rect class="exclude-range" transform-origin="360px 1646px" height="231" width="1" y="35" x="360" id="exclude-2026-09-12"/><rect class="exclude-range" transform-origin="364.5px 1670px" height="231" width="2" y="35" x="364" id="exclude-2026-09-19"/><rect class="exclude-range" transform-origin="369.5px 1694px" height="231" width="1" y="35" x="369" id="exclude-2026-09-26"/><rect class="exclude-range" transform-origin="373.5px 1718px" height="231" width="2" y="35" x="373" id="exclude-2026-10-03"/><rect class="exclude-range" transform-origin="378.5px 1742px" height="231" width="1" y="35" x="378" id="exclude-2026-10-10"/><rect class="exclude-range" transform-origin="383px 1766px" height="231" width="1" y="35" x="383" id="exclude-2026-10-17"/><rect class="exclude-range" transform-origin="387.5px 1790px" height="231" width="1" y="35" x="387" id="exclude-2026-10-24"/><rect class="exclude-range" transform-origin="392px 1814px" height="231" width="1" y="35" x="392" id="exclude-2026-10-31"/><rect class="exclude-range" transform-origin="396.5px 1838px" height="231" width="2" y="35" x="396" id="exclude-2026-11-07"/><rect class="exclude-range" transform-origin="401px 1862px" height="231" width="1" y="35" x="401" id="exclude-2026-11-14"/><rect class="exclude-range" transform-origin="405.5px 1886px" height="231" width="2" y="35" x="405" id="exclude-2026-11-21"/><rect class="exclude-range" transform-origin="410.5px 1910px" height="231" width="1" y="35" x="410" id="exclude-2026-11-28"/><rect class="exclude-range" transform-origin="414.5px 1934px" height="231" width="2" y="35" x="414" id="exclude-2026-12-05"/><rect class="exclude-range" transform-origin="419.5px 1958px" height="231" width="1" y="35" x="419" id="exclude-2026-12-12"/><rect class="exclude-range" transform-origin="424px 1982px" height="231" width="1" y="35" x="424" id="exclude-2026-12-19"/><rect class="exclude-range" transform-origin="428.5px 2006px" height="231" width="1" y="35" x="428" id="exclude-2026-12-26"/><rect class="exclude-range" transform-origin="433px 2030px" height="231" width="1" y="35" x="433" id="exclude-2027-01-02"/><rect class="exclude-range" transform-origin="437.5px 2054px" height="231" width="2" y="35" x="437" id="exclude-2027-01-09"/><rect class="exclude-range" transform-origin="442px 2078px" height="231" width="1" y="35" x="442" id="exclude-2027-01-16"/><rect class="exclude-range" transform-origin="446.5px 2102px" height="231" width="2" y="35" x="446" id="exclude-2027-01-23"/><rect class="exclude-range" transform-origin="451.5px 2126px" height="231" width="1" y="35" x="451" id="exclude-2027-01-30"/><rect class="exclude-range" transform-origin="455.5px 2150px" height="231" width="2" y="35" x="455" id="exclude-2027-02-06"/><rect class="exclude-range" transform-origin="460.5px 2174px" height="231" width="1" y="35" x="460" id="exclude-2027-02-13"/><rect class="exclude-range" transform-origin="465px 2198px" height="231" width="1" y="35" x="465" id="exclude-2027-02-20"/><rect class="exclude-range" transform-origin="469.5px 2222px" height="231" width="1" y="35" x="469" id="exclude-2027-02-27"/><rect class="exclude-range" transform-origin="474px 2246px" height="231" width="1" y="35" x="474" id="exclude-2027-03-06"/><rect class="exclude-range" transform-origin="478.5px 2270px" height="231" width="1" y="35" x="478" id="exclude-2027-03-13"/><rect class="exclude-range" transform-origin="483px 2294px" height="231" width="1" y="35" x="483" id="exclude-2027-03-20"/><rect class="exclude-range" transform-origin="487.5px 2318px" height="231" width="2" y="35" x="487" id="exclude-2027-03-27"/><rect class="exclude-range" transform-origin="492px 2342px" height="231" width="1" y="35" x="492" id="exclude-2027-04-03"/><rect class="exclude-range" transform-origin="496.5px 2366px" height="231" width="2" y="35" x="496" id="exclude-2027-04-10"/><rect class="exclude-range" transform-origin="501.5px 2390px" height="231" width="1" y="35" x="501" id="exclude-2027-04-17"/><rect class="exclude-range" transform-origin="505.5px 2414px" height="231" width="2" y="35" x="505" id="exclude-2027-04-24"/><rect class="exclude-range" transform-origin="510.5px 2438px" height="231" width="1" y="35" x="510" id="exclude-2027-05-01"/><rect class="exclude-range" transform-origin="515px 2462px" height="231" width="1" y="35" x="515" id="exclude-2027-05-08"/><rect class="exclude-range" transform-origin="519.5px 2486px" height="231" width="1" y="35" x="519" id="exclude-2027-05-15"/><rect class="exclude-range" transform-origin="524px 2510px" height="231" width="1" y="35" x="524" id="exclude-2027-05-22"/><rect class="exclude-range" transform-origin="528.5px 2534px" height="231" width="2" y="35" x="528" id="exclude-2027-05-29"/><rect class="exclude-range" transform-origin="533px 2558px" height="231" width="1" y="35" x="533" id="exclude-2027-06-05"/><rect class="exclude-range" transform-origin="537.5px 2582px" height="231" width="2" y="35" x="537" id="exclude-2027-06-12"/><rect class="exclude-range" transform-origin="542.5px 2606px" height="231" width="1" y="35" x="542" id="exclude-2027-06-19"/><rect class="exclude-range" transform-origin="546.5px 2630px" height="231" width="2" y="35" x="546" id="exclude-2027-06-26"/><rect class="exclude-range" transform-origin="551.5px 2654px" height="231" width="1" y="35" x="551" id="exclude-2027-07-03"/><rect class="exclude-range" transform-origin="556px 2678px" height="231" width="1" y="35" x="556" id="exclude-2027-07-10"/><rect class="exclude-range" transform-origin="560.5px 2702px" height="231" width="1" y="35" x="560" id="exclude-2027-07-17"/><rect class="exclude-range" transform-origin="565px 2726px" height="231" width="1" y="35" x="565" id="exclude-2027-07-24"/><rect class="exclude-range" transform-origin="569.5px 2750px" height="231" width="1" y="35" x="569" id="exclude-2027-07-31"/><rect class="exclude-range" transform-origin="574px 2774px" height="231" width="1" y="35" x="574" id="exclude-2027-08-07"/><rect class="exclude-range" transform-origin="578.5px 2798px" height="231" width="2" y="35" x="578" id="exclude-2027-08-14"/><rect class="exclude-range" transform-origin="583px 2822px" height="231" width="1" y="35" x="583" id="exclude-2027-08-21"/><rect class="exclude-range" transform-origin="587.5px 2846px" height="231" width="2" y="35" x="587" id="exclude-2027-08-28"/><rect class="exclude-range" transform-origin="592.5px 2870px" height="231" width="1" y="35" x="592" id="exclude-2027-09-04"/><rect class="exclude-range" transform-origin="596.5px 2894px" height="231" width="2" y="35" x="596" id="exclude-2027-09-11"/><rect class="exclude-range" transform-origin="601.5px 2918px" height="231" width="1" y="35" x="601" id="exclude-2027-09-18"/><rect class="exclude-range" transform-origin="606px 2942px" height="231" width="1" y="35" x="606" id="exclude-2027-09-25"/><rect class="exclude-range" transform-origin="610.5px 2966px" height="231" width="1" y="35" x="610" id="exclude-2027-10-02"/><rect class="exclude-range" transform-origin="615px 2990px" height="231" width="1" y="35" x="615" id="exclude-2027-10-09"/><rect class="exclude-range" transform-origin="619.5px 3014px" height="231" width="2" y="35" x="619" id="exclude-2027-10-16"/><rect class="exclude-range" transform-origin="624px 3038px" height="231" width="1" y="35" x="624" id="exclude-2027-10-23"/><rect class="exclude-range" transform-origin="628.5px 3062px" height="231" width="2" y="35" x="628" id="exclude-2027-10-30"/><rect class="exclude-range" transform-origin="633.5px 3086px" height="231" width="1" y="35" x="633" id="exclude-2027-11-06"/><rect class="exclude-range" transform-origin="637.5px 3110px" height="231" width="2" y="35" x="637" id="exclude-2027-11-13"/><rect class="exclude-range" transform-origin="642.5px 3134px" height="231" width="1" y="35" x="642" id="exclude-2027-11-20"/><rect class="exclude-range" transform-origin="647px 3158px" height="231" width="1" y="35" x="647" id="exclude-2027-11-27"/><rect class="exclude-range" transform-origin="651.5px 3182px" height="231" width="1" y="35" x="651" id="exclude-2027-12-04"/><rect class="exclude-range" transform-origin="656px 3206px" height="231" width="1" y="35" x="656" id="exclude-2027-12-11"/><rect class="exclude-range" transform-origin="660.5px 3230px" height="231" width="2" y="35" x="660" id="exclude-2027-12-18"/><rect class="exclude-range" transform-origin="665px 3254px" height="231" width="1" y="35" x="665" id="exclude-2027-12-25"/><rect class="exclude-range" transform-origin="669.5px 3278px" height="231" width="2" y="35" x="669" id="exclude-2028-01-01"/><rect class="exclude-range" transform-origin="674.5px 3302px" height="231" width="1" y="35" x="674" id="exclude-2028-01-08"/><rect class="exclude-range" transform-origin="678.5px 3326px" height="231" width="2" y="35" x="678" id="exclude-2028-01-15"/><rect class="exclude-range" transform-origin="683.5px 3350px" height="231" width="1" y="35" x="683" id="exclude-2028-01-22"/><rect class="exclude-range" transform-origin="688px 3374px" height="231" width="1" y="35" x="688" id="exclude-2028-01-29"/><rect class="exclude-range" transform-origin="692.5px 3398px" height="231" width="1" y="35" x="692" id="exclude-2028-02-05"/><rect class="exclude-range" transform-origin="697px 3422px" height="231" width="1" y="35" x="697" id="exclude-2028-02-12"/><rect class="exclude-range" transform-origin="701.5px 3446px" height="231" width="1" y="35" x="701" id="exclude-2028-02-19"/><rect class="exclude-range" transform-origin="706px 3470px" height="231" width="1" y="35" x="706" id="exclude-2028-02-26"/></g><g text-anchor="middle" font-family="sans-serif" font-size="10" fill="none" transform="translate(75, 266)" class="grid"><path d="M0.5,-231V0.5H634.5V-231" stroke="currentColor" class="domain"/><g transform="translate(0.5,0)" opacity="1" class="tick"><line y2="-231" stroke="currentColor"/><text style="text-anchor: middle;" font-size="10" stroke="none" dy="1em" y="3" fill="#000">01/07/2025</text></g><g transform="translate(120.5,0)" opacity="1" class="tick"><line y2="-231" stroke="currentColor"/><text style="text-anchor: middle;" font-size="10" stroke="none" dy="1em" y="3" fill="#000">01/01/2026</text></g><g transform="translate(237.5,0)" opacity="1" class="tick"><line y2="-231" stroke="currentColor"/><text style="text-anchor: middle;" font-size="10" stroke="none" dy="1em" y="3" fill="#000">01/07/2026</text></g><g transform="translate(357.5,0)" opacity="1" class="tick"><line y2="-231" stroke="currentColor"/><text style="text-anchor: middle;" font-size="10" stroke="none" dy="1em" y="3" fill="#000">01/01/2027</text></g><g transform="translate(475.5,0)" opacity="1" class="tick"><line y2="-231" stroke="currentColor"/><text style="text-anchor: middle;" font-size="10" stroke="none" dy="1em" y="3" fill="#000">01/07/2027</text></g><g transform="translate(594.5,0)" opacity="1" class="tick"><line y2="-231" stroke="currentColor"/><text style="text-anchor: middle;" font-size="10" stroke="none" dy="1em" y="3" fill="#000">01/01/2028</text></g></g><g><rect class="section section0" height="24" width="746.5" y="48" x="0"/><rect class="section section0" height="24" width="746.5" y="72" x="0"/><rect class="section section0" height="24" width="746.5" y="96" x="0"/><rect class="section section0" height="24" width="746.5" y="120" x="0"/><rect class="section section0" height="24" width="746.5" y="144" x="0"/><rect class="section section0" height="24" width="746.5" y="168" x="0"/><rect class="section section0" height="24" width="746.5" y="192" x="0"/><rect class="section section0" height="24" width="746.5" y="216" x="0"/><rect class="section section0" height="24" width="746.5" y="240" x="0"/></g><g><rect class="task milestone  task0" transform-origin="75.5px 60px" height="20" width="20" y="50" x="65.5" ry="3" rx="3" id="task1"/><rect class="task milestone  task0" transform-origin="135.5px 84px" height="20" width="20" y="74" x="125.5" ry="3" rx="3" id="task2"/><rect class="task milestone  task0" transform-origin="233.5px 108px" height="20" width="20" y="98" x="223.5" ry="3" rx="3" id="task3"/><rect class="task milestone  task0" transform-origin="353px 132px" height="20" width="20" y="122" x="343" ry="3" rx="3" id="task4"/><rect class="task milestone  task0" transform-origin="431.5px 156px" height="20" width="20" y="146" x="421.5" ry="3" rx="3" id="task5"/><rect class="task milestone  task0" transform-origin="490px 180px" height="20" width="20" y="170" x="480" ry="3" rx="3" id="task6"/><rect class="task milestone  task0" transform-origin="530.5px 204px" height="20" width="20" y="194" x="520.5" ry="3" rx="3" id="task7"/><rect class="task milestone  task0" transform-origin="670px 228px" height="20" width="20" y="218" x="660" ry="3" rx="3" id="task8"/><rect class="task milestone  task0" transform-origin="708.5px 252px" height="20" width="20" y="242" x="698.5" ry="3" rx="3" id="task9"/><text class="taskTextOutsideRight taskTextOutside0  milestoneText width-144.453125" y="63.5" x="90.5" font-size="11" id="task1-text">Choix du scénario 2025-07-01 </text><text class="taskTextOutsideRight taskTextOutside0  milestoneText width-215.75" y="87.5" x="150.5" font-size="11" id="task2-text">Solution de conception en place 2025-09-31 </text><text class="taskTextOutsideRight taskTextOutside0  milestoneText width-189.1875" y="111.5" x="248.5" font-size="11" id="task3-text">Questionnaires développés 2026-03-01 </text><text class="taskTextOutsideRight taskTextOutside0  milestoneText width-174.71875" y="135.5" x="368" font-size="11" id="task4-text">Questionnaires recettés 2026-09-01 </text><text class="taskTextOutsideRight taskTextOutside0  milestoneText width-243.125" y="159.5" x="446.5" font-size="11" id="task5-text">Solution de suivi et validation validée 2026-12-31 </text><text class="taskTextOutsideRight taskTextOutside0  milestoneText width-187.953125" y="183.5" x="505" font-size="11" id="task6-text">Traitement aval mis à jour 2027-03-31 </text><text class="taskTextOutsideRight taskTextOutside0  milestoneText width-180.671875" y="207.5" x="545.5" font-size="11" id="task7-text">Processus complet validé 2027-06-01 </text><text class="taskTextOutsideLeft taskTextOutside0  milestoneText" y="231.5" x="655" font-size="11" id="task8-text">Plateforme finalisée 2027-12-31 </text><text class="taskTextOutsideLeft taskTextOutside0  milestoneText" y="255.5" x="693.5" font-size="11" id="task9-text">Rapport à la DGAGRI 2028-03-01 </text></g><g><text class="sectionTitle sectionTitle0" font-size="11" y="158" x="10" dy="0em"><tspan x="10" alignment-baseline="central">Jalons</tspan></text></g><text class="titleText" y="25" x="392">Rétro-planning RIDEA</text></svg>